<mxfile host="app.diagrams.net" modified="2023-11-09T05:00:58.547Z" agent="Mozilla/5.0 (Windows NT 10.0; Win64; x64) AppleWebKit/537.36 (KHTML, like Gecko) Chrome/119.0.0.0 Safari/537.36" etag="oF1_NSFSToSLqW-rU39T" version="22.0.8" type="github">
  <diagram name="Page-1" id="bCyZ8yfbj6f0R-I90FGf">
    <mxGraphModel dx="1183" dy="613" grid="1" gridSize="10" guides="1" tooltips="1" connect="1" arrows="1" fold="1" page="1" pageScale="1" pageWidth="1100" pageHeight="850" math="0" shadow="0">
      <root>
        <mxCell id="0" />
        <mxCell id="1" parent="0" />
        <mxCell id="NETBPx4CNEGQBiJZtbOW-61" value="" style="group" vertex="1" connectable="0" parent="1">
          <mxGeometry x="195" y="170" width="615" height="370.5" as="geometry" />
        </mxCell>
        <mxCell id="NETBPx4CNEGQBiJZtbOW-5" value="" style="verticalLabelPosition=bottom;html=1;verticalAlign=top;align=center;shape=mxgraph.floorplan.wallU;fillColor=strokeColor;" vertex="1" parent="NETBPx4CNEGQBiJZtbOW-61">
          <mxGeometry x="165" y="70" width="360" height="300" as="geometry" />
        </mxCell>
        <mxCell id="NETBPx4CNEGQBiJZtbOW-7" value="" style="verticalLabelPosition=bottom;html=1;verticalAlign=top;align=center;shape=mxgraph.floorplan.doorRight;aspect=fixed;rotation=90;" vertex="1" parent="NETBPx4CNEGQBiJZtbOW-61">
          <mxGeometry x="419" y="288" width="80" height="85" as="geometry" />
        </mxCell>
        <mxCell id="NETBPx4CNEGQBiJZtbOW-10" value="" style="rounded=0;whiteSpace=wrap;html=1;" vertex="1" parent="NETBPx4CNEGQBiJZtbOW-61">
          <mxGeometry x="503" y="360" width="10" height="10" as="geometry" />
        </mxCell>
        <mxCell id="NETBPx4CNEGQBiJZtbOW-11" value="" style="verticalLabelPosition=bottom;html=1;verticalAlign=top;align=center;shape=mxgraph.floorplan.wall;fillColor=strokeColor;direction=south;rotation=-90;" vertex="1" parent="NETBPx4CNEGQBiJZtbOW-61">
          <mxGeometry x="284.25" y="251.25" width="10" height="227.5" as="geometry" />
        </mxCell>
        <mxCell id="NETBPx4CNEGQBiJZtbOW-12" value="" style="rounded=0;whiteSpace=wrap;html=1;" vertex="1" parent="NETBPx4CNEGQBiJZtbOW-61">
          <mxGeometry x="405" y="360" width="10" height="10" as="geometry" />
        </mxCell>
        <mxCell id="NETBPx4CNEGQBiJZtbOW-14" value="" style="rounded=0;whiteSpace=wrap;html=1;" vertex="1" parent="NETBPx4CNEGQBiJZtbOW-61">
          <mxGeometry x="140" y="110" width="60" height="30" as="geometry" />
        </mxCell>
        <mxCell id="NETBPx4CNEGQBiJZtbOW-15" value="" style="shape=image;html=1;verticalAlign=top;verticalLabelPosition=bottom;labelBackgroundColor=#ffffff;imageAspect=0;aspect=fixed;image=https://cdn1.iconfinder.com/data/icons/DarkGlass_Reworked/128x128/filesystems/pipe.png;rotation=30;" vertex="1" parent="NETBPx4CNEGQBiJZtbOW-61">
          <mxGeometry x="85" y="58" width="60" height="60" as="geometry" />
        </mxCell>
        <mxCell id="NETBPx4CNEGQBiJZtbOW-16" value="4 inch pipe" style="text;html=1;align=center;verticalAlign=middle;resizable=0;points=[];autosize=1;strokeColor=none;fillColor=none;fontSize=10;" vertex="1" parent="NETBPx4CNEGQBiJZtbOW-61">
          <mxGeometry x="95" y="43" width="70" height="30" as="geometry" />
        </mxCell>
        <mxCell id="NETBPx4CNEGQBiJZtbOW-17" value="cable junction" style="whiteSpace=wrap;html=1;aspect=fixed;" vertex="1" parent="NETBPx4CNEGQBiJZtbOW-61">
          <mxGeometry x="5" width="80" height="80" as="geometry" />
        </mxCell>
        <mxCell id="NETBPx4CNEGQBiJZtbOW-20" style="edgeStyle=orthogonalEdgeStyle;rounded=0;orthogonalLoop=1;jettySize=auto;html=1;entryX=0;entryY=0.5;entryDx=0;entryDy=0;" edge="1" parent="NETBPx4CNEGQBiJZtbOW-61" source="NETBPx4CNEGQBiJZtbOW-18" target="NETBPx4CNEGQBiJZtbOW-14">
          <mxGeometry relative="1" as="geometry" />
        </mxCell>
        <mxCell id="NETBPx4CNEGQBiJZtbOW-18" value="&lt;font style=&quot;font-size: 10px;&quot;&gt;2.5 ft height hole from wall&lt;/font&gt;" style="text;html=1;align=center;verticalAlign=middle;resizable=0;points=[];autosize=1;strokeColor=none;fillColor=none;" vertex="1" parent="NETBPx4CNEGQBiJZtbOW-61">
          <mxGeometry y="148" width="140" height="30" as="geometry" />
        </mxCell>
        <mxCell id="NETBPx4CNEGQBiJZtbOW-21" value="Server Room" style="rounded=0;whiteSpace=wrap;html=1;dashed=1;" vertex="1" parent="NETBPx4CNEGQBiJZtbOW-61">
          <mxGeometry x="270" y="161.25" width="150" height="90" as="geometry" />
        </mxCell>
        <mxCell id="NETBPx4CNEGQBiJZtbOW-22" value="" style="html=1;verticalLabelPosition=bottom;align=center;labelBackgroundColor=#ffffff;verticalAlign=top;strokeWidth=2;strokeColor=#0080F0;shadow=0;dashed=0;shape=mxgraph.ios7.icons.lightbulb;" vertex="1" parent="NETBPx4CNEGQBiJZtbOW-61">
          <mxGeometry x="245" y="136" width="10" height="12" as="geometry" />
        </mxCell>
        <mxCell id="NETBPx4CNEGQBiJZtbOW-23" value="" style="html=1;verticalLabelPosition=bottom;align=center;labelBackgroundColor=#ffffff;verticalAlign=top;strokeWidth=2;strokeColor=#0080F0;shadow=0;dashed=0;shape=mxgraph.ios7.icons.lightbulb;" vertex="1" parent="NETBPx4CNEGQBiJZtbOW-61">
          <mxGeometry x="345" y="136" width="10" height="12" as="geometry" />
        </mxCell>
        <mxCell id="NETBPx4CNEGQBiJZtbOW-24" value="" style="html=1;verticalLabelPosition=bottom;align=center;labelBackgroundColor=#ffffff;verticalAlign=top;strokeWidth=2;strokeColor=#0080F0;shadow=0;dashed=0;shape=mxgraph.ios7.icons.lightbulb;" vertex="1" parent="NETBPx4CNEGQBiJZtbOW-61">
          <mxGeometry x="445" y="136" width="10" height="12" as="geometry" />
        </mxCell>
        <mxCell id="NETBPx4CNEGQBiJZtbOW-25" value="" style="html=1;verticalLabelPosition=bottom;align=center;labelBackgroundColor=#ffffff;verticalAlign=top;strokeWidth=2;strokeColor=#0080F0;shadow=0;dashed=0;shape=mxgraph.ios7.icons.lightbulb;" vertex="1" parent="NETBPx4CNEGQBiJZtbOW-61">
          <mxGeometry x="445" y="188.25" width="10" height="12" as="geometry" />
        </mxCell>
        <mxCell id="NETBPx4CNEGQBiJZtbOW-26" value="" style="html=1;verticalLabelPosition=bottom;align=center;labelBackgroundColor=#ffffff;verticalAlign=top;strokeWidth=2;strokeColor=#0080F0;shadow=0;dashed=0;shape=mxgraph.ios7.icons.lightbulb;" vertex="1" parent="NETBPx4CNEGQBiJZtbOW-61">
          <mxGeometry x="345" y="188.25" width="10" height="12" as="geometry" />
        </mxCell>
        <mxCell id="NETBPx4CNEGQBiJZtbOW-27" value="" style="html=1;verticalLabelPosition=bottom;align=center;labelBackgroundColor=#ffffff;verticalAlign=top;strokeWidth=2;strokeColor=#0080F0;shadow=0;dashed=0;shape=mxgraph.ios7.icons.lightbulb;" vertex="1" parent="NETBPx4CNEGQBiJZtbOW-61">
          <mxGeometry x="445" y="260" width="10" height="12" as="geometry" />
        </mxCell>
        <mxCell id="NETBPx4CNEGQBiJZtbOW-28" value="" style="html=1;verticalLabelPosition=bottom;align=center;labelBackgroundColor=#ffffff;verticalAlign=top;strokeWidth=2;strokeColor=#0080F0;shadow=0;dashed=0;shape=mxgraph.ios7.icons.lightbulb;" vertex="1" parent="NETBPx4CNEGQBiJZtbOW-61">
          <mxGeometry x="345" y="260" width="10" height="12" as="geometry" />
        </mxCell>
        <mxCell id="NETBPx4CNEGQBiJZtbOW-29" value="" style="html=1;verticalLabelPosition=bottom;align=center;labelBackgroundColor=#ffffff;verticalAlign=top;strokeWidth=2;strokeColor=#0080F0;shadow=0;dashed=0;shape=mxgraph.ios7.icons.lightbulb;" vertex="1" parent="NETBPx4CNEGQBiJZtbOW-61">
          <mxGeometry x="245" y="200.25" width="10" height="12" as="geometry" />
        </mxCell>
        <mxCell id="NETBPx4CNEGQBiJZtbOW-30" value="" style="html=1;verticalLabelPosition=bottom;align=center;labelBackgroundColor=#ffffff;verticalAlign=top;strokeWidth=2;strokeColor=#0080F0;shadow=0;dashed=0;shape=mxgraph.ios7.icons.lightbulb;" vertex="1" parent="NETBPx4CNEGQBiJZtbOW-61">
          <mxGeometry x="245" y="260" width="10" height="12" as="geometry" />
        </mxCell>
        <mxCell id="NETBPx4CNEGQBiJZtbOW-31" value="light" style="text;html=1;align=center;verticalAlign=middle;resizable=0;points=[];autosize=1;strokeColor=none;fillColor=none;fontSize=8;" vertex="1" parent="NETBPx4CNEGQBiJZtbOW-61">
          <mxGeometry x="430" y="148" width="40" height="20" as="geometry" />
        </mxCell>
        <mxCell id="NETBPx4CNEGQBiJZtbOW-32" value="" style="pointerEvents=1;verticalLabelPosition=bottom;shadow=0;dashed=0;align=center;html=1;verticalAlign=top;shape=mxgraph.electrical.miscellaneous.plug_socket_connection" vertex="1" parent="NETBPx4CNEGQBiJZtbOW-61">
          <mxGeometry x="260" y="80" width="10" height="20" as="geometry" />
        </mxCell>
        <mxCell id="NETBPx4CNEGQBiJZtbOW-33" value="&lt;font style=&quot;font-size: 9px;&quot;&gt;Sockets&lt;/font&gt;" style="pointerEvents=1;verticalLabelPosition=bottom;shadow=0;dashed=0;align=center;html=1;verticalAlign=top;shape=mxgraph.electrical.miscellaneous.plug_socket_connection" vertex="1" parent="NETBPx4CNEGQBiJZtbOW-61">
          <mxGeometry x="385" y="80" width="10" height="20" as="geometry" />
        </mxCell>
        <mxCell id="NETBPx4CNEGQBiJZtbOW-34" value="" style="pointerEvents=1;verticalLabelPosition=bottom;shadow=0;dashed=0;align=center;html=1;verticalAlign=top;shape=mxgraph.electrical.miscellaneous.plug_socket_connection;rotation=-90;" vertex="1" parent="NETBPx4CNEGQBiJZtbOW-61">
          <mxGeometry x="182" y="231" width="10" height="20" as="geometry" />
        </mxCell>
        <mxCell id="NETBPx4CNEGQBiJZtbOW-35" value="" style="pointerEvents=1;verticalLabelPosition=bottom;shadow=0;dashed=0;align=center;html=1;verticalAlign=top;shape=mxgraph.electrical.miscellaneous.plug_socket_connection;rotation=90;" vertex="1" parent="NETBPx4CNEGQBiJZtbOW-61">
          <mxGeometry x="499" y="180.25" width="10" height="20" as="geometry" />
        </mxCell>
        <mxCell id="NETBPx4CNEGQBiJZtbOW-36" value="" style="verticalLabelPosition=bottom;aspect=fixed;html=1;verticalAlign=top;fillColor=strokeColor;align=center;outlineConnect=0;shape=mxgraph.fluid_power.x12160_detailed;points=[[0,0.505,0],[1,0.505,0],[0.236,1,0]]" vertex="1" parent="NETBPx4CNEGQBiJZtbOW-61">
          <mxGeometry x="222.54000000000002" y="342.53999999999996" width="37.46" height="17.46" as="geometry" />
        </mxCell>
        <mxCell id="NETBPx4CNEGQBiJZtbOW-37" value="" style="verticalLabelPosition=bottom;aspect=fixed;html=1;verticalAlign=top;fillColor=strokeColor;align=center;outlineConnect=0;shape=mxgraph.fluid_power.x12160_detailed;points=[[0,0.505,0],[1,0.505,0],[0.236,1,0]]" vertex="1" parent="NETBPx4CNEGQBiJZtbOW-61">
          <mxGeometry x="318" y="342.53999999999996" width="37.46" height="17.46" as="geometry" />
        </mxCell>
        <mxCell id="NETBPx4CNEGQBiJZtbOW-38" value="" style="verticalLabelPosition=bottom;aspect=fixed;html=1;verticalAlign=top;fillColor=strokeColor;align=center;outlineConnect=0;shape=mxgraph.fluid_power.x12160_detailed;points=[[0,0.505,0],[1,0.505,0],[0.236,1,0]];rotation=90;" vertex="1" parent="NETBPx4CNEGQBiJZtbOW-61">
          <mxGeometry x="165" y="287.99999999999994" width="37.46" height="17.46" as="geometry" />
        </mxCell>
        <mxCell id="NETBPx4CNEGQBiJZtbOW-40" style="edgeStyle=orthogonalEdgeStyle;rounded=0;orthogonalLoop=1;jettySize=auto;html=1;fontColor=#4a4545;" edge="1" parent="NETBPx4CNEGQBiJZtbOW-61" source="NETBPx4CNEGQBiJZtbOW-39" target="NETBPx4CNEGQBiJZtbOW-38">
          <mxGeometry relative="1" as="geometry" />
        </mxCell>
        <mxCell id="NETBPx4CNEGQBiJZtbOW-39" value="AC" style="text;html=1;align=center;verticalAlign=middle;resizable=0;points=[];autosize=1;strokeColor=none;fillColor=none;" vertex="1" parent="NETBPx4CNEGQBiJZtbOW-61">
          <mxGeometry x="100" y="281.73" width="40" height="30" as="geometry" />
        </mxCell>
        <mxCell id="NETBPx4CNEGQBiJZtbOW-41" value="" style="pointerEvents=1;verticalLabelPosition=bottom;shadow=0;dashed=0;align=center;html=1;verticalAlign=top;shape=mxgraph.electrical.miscellaneous.plug_socket_connection;rotation=-180;" vertex="1" parent="NETBPx4CNEGQBiJZtbOW-61">
          <mxGeometry x="192.45999999999998" y="340" width="10" height="20" as="geometry" />
        </mxCell>
        <mxCell id="NETBPx4CNEGQBiJZtbOW-42" value="" style="pointerEvents=1;verticalLabelPosition=bottom;shadow=0;dashed=0;align=center;html=1;verticalAlign=top;shape=mxgraph.electrical.miscellaneous.plug_socket_connection;rotation=-180;" vertex="1" parent="NETBPx4CNEGQBiJZtbOW-61">
          <mxGeometry x="284.25" y="340" width="10" height="20" as="geometry" />
        </mxCell>
        <mxCell id="NETBPx4CNEGQBiJZtbOW-43" value="" style="verticalLabelPosition=bottom;align=center;dashed=0;html=1;verticalAlign=top;shape=mxgraph.pid.filters.liquid_Filter_(bag,_candle,_cartridge);" vertex="1" parent="NETBPx4CNEGQBiJZtbOW-61">
          <mxGeometry x="365" y="340" width="11.54" height="20" as="geometry" />
        </mxCell>
        <mxCell id="NETBPx4CNEGQBiJZtbOW-47" value="light Box" style="text;html=1;align=center;verticalAlign=middle;resizable=0;points=[];autosize=1;strokeColor=none;fillColor=none;fontSize=8;" vertex="1" parent="NETBPx4CNEGQBiJZtbOW-61">
          <mxGeometry x="340" y="320" width="50" height="20" as="geometry" />
        </mxCell>
        <mxCell id="NETBPx4CNEGQBiJZtbOW-50" value="" style="html=1;verticalLabelPosition=bottom;align=center;labelBackgroundColor=#ffffff;verticalAlign=top;strokeWidth=2;shadow=0;dashed=0;shape=mxgraph.ios7.icons.bell;" vertex="1" parent="NETBPx4CNEGQBiJZtbOW-61">
          <mxGeometry x="385" y="350" width="14" height="10" as="geometry" />
        </mxCell>
        <mxCell id="NETBPx4CNEGQBiJZtbOW-51" value="Exit button" style="text;html=1;align=center;verticalAlign=middle;resizable=0;points=[];autosize=1;strokeColor=none;fillColor=none;strokeWidth=0;fontSize=6;" vertex="1" parent="NETBPx4CNEGQBiJZtbOW-61">
          <mxGeometry x="370" y="330" width="50" height="20" as="geometry" />
        </mxCell>
        <mxCell id="NETBPx4CNEGQBiJZtbOW-52" value="" style="sketch=0;shadow=0;dashed=0;html=1;strokeColor=none;fillColor=#505050;labelPosition=center;verticalLabelPosition=bottom;verticalAlign=top;outlineConnect=0;align=center;shape=mxgraph.office.databases.address_book_store;rotation=-90;" vertex="1" parent="NETBPx4CNEGQBiJZtbOW-61">
          <mxGeometry x="494.32000000000005" y="236.32" width="28.25" height="15.13" as="geometry" />
        </mxCell>
        <mxCell id="NETBPx4CNEGQBiJZtbOW-53" value="&lt;font style=&quot;font-size: 8px;&quot;&gt;Electric DB Box&lt;/font&gt;" style="text;html=1;align=center;verticalAlign=middle;resizable=0;points=[];autosize=1;strokeColor=none;fillColor=none;" vertex="1" parent="NETBPx4CNEGQBiJZtbOW-61">
          <mxGeometry x="535" y="227" width="80" height="30" as="geometry" />
        </mxCell>
        <mxCell id="NETBPx4CNEGQBiJZtbOW-54" value="" style="endArrow=classic;html=1;rounded=0;" edge="1" parent="NETBPx4CNEGQBiJZtbOW-61" source="NETBPx4CNEGQBiJZtbOW-53" target="NETBPx4CNEGQBiJZtbOW-52">
          <mxGeometry width="50" height="50" relative="1" as="geometry">
            <mxPoint x="575" y="301" as="sourcePoint" />
            <mxPoint x="625" y="251" as="targetPoint" />
            <Array as="points">
              <mxPoint x="545" y="244" />
            </Array>
          </mxGeometry>
        </mxCell>
        <mxCell id="NETBPx4CNEGQBiJZtbOW-55" value="" style="pointerEvents=1;verticalLabelPosition=bottom;shadow=0;dashed=0;align=center;html=1;verticalAlign=top;shape=mxgraph.electrical.electro-mechanical.isolatorSwitch2;elSwitchState=on;" vertex="1" parent="NETBPx4CNEGQBiJZtbOW-61">
          <mxGeometry x="235" y="230" width="75" height="20" as="geometry" />
        </mxCell>
        <mxCell id="NETBPx4CNEGQBiJZtbOW-56" value="" style="pointerEvents=1;verticalLabelPosition=bottom;shadow=0;dashed=0;align=center;html=1;verticalAlign=top;shape=mxgraph.electrical.electro-mechanical.isolatorSwitch2;elSwitchState=on;" vertex="1" parent="NETBPx4CNEGQBiJZtbOW-61">
          <mxGeometry x="235" y="230" width="75" height="20" as="geometry" />
        </mxCell>
        <mxCell id="NETBPx4CNEGQBiJZtbOW-57" value="" style="pointerEvents=1;verticalLabelPosition=bottom;shadow=0;dashed=0;align=center;html=1;verticalAlign=top;shape=mxgraph.electrical.electro-mechanical.isolatorSwitch2;elSwitchState=on;" vertex="1" parent="NETBPx4CNEGQBiJZtbOW-61">
          <mxGeometry x="170" y="148" width="35" height="12" as="geometry" />
        </mxCell>
        <mxCell id="NETBPx4CNEGQBiJZtbOW-58" value="" style="pointerEvents=1;verticalLabelPosition=bottom;shadow=0;dashed=0;align=center;html=1;verticalAlign=top;shape=mxgraph.electrical.electro-mechanical.isolatorSwitch2;elSwitchState=on;" vertex="1" parent="NETBPx4CNEGQBiJZtbOW-61">
          <mxGeometry x="170" y="161.25" width="35" height="12" as="geometry" />
        </mxCell>
        <mxCell id="NETBPx4CNEGQBiJZtbOW-59" value="" style="pointerEvents=1;verticalLabelPosition=bottom;shadow=0;dashed=0;align=center;html=1;verticalAlign=top;shape=mxgraph.electrical.electro-mechanical.isolatorSwitch2;elSwitchState=on;" vertex="1" parent="NETBPx4CNEGQBiJZtbOW-61">
          <mxGeometry x="169.5" y="176.25" width="35" height="12" as="geometry" />
        </mxCell>
        <mxCell id="NETBPx4CNEGQBiJZtbOW-60" value="&lt;font style=&quot;font-size: 8px;&quot;&gt;isolator&lt;/font&gt;" style="text;html=1;align=center;verticalAlign=middle;resizable=0;points=[];autosize=1;strokeColor=none;fillColor=none;" vertex="1" parent="NETBPx4CNEGQBiJZtbOW-61">
          <mxGeometry x="170" y="179.25" width="50" height="30" as="geometry" />
        </mxCell>
      </root>
    </mxGraphModel>
  </diagram>
</mxfile>
